<svg width="543" height="113" viewBox="0 0 543 113" fill="none" xmlns="http://www.w3.org/2000/svg">
<path d="M27.6354 110.211C27.0308 110.288 26.4167 110.235 25.8341 110.056C25.2515 109.876 24.7139 109.575 24.257 109.171C23.4744 108.342 22.8569 107.372 22.4378 106.312L0.0877248 34.1811C-0.0292416 33.6678 -0.0292416 33.1347 0.0877248 32.6214C0.0916897 32.1496 0.19837 31.6843 0.400331 31.2579C0.602293 30.8314 0.89469 30.454 1.25721 30.1521C1.91028 29.4925 2.79804 29.1187 3.72611 29.1124H19.709C20.3019 29.0716 20.8969 29.1544 21.4562 29.3557C22.0154 29.5571 22.5267 29.8726 22.9575 30.2821C23.6756 30.8306 24.1808 31.6116 24.3869 32.4915L37.3811 77.0697L51.4148 32.6214C51.7457 31.731 52.2796 30.93 52.9742 30.2821C53.405 29.8726 53.9163 29.5571 54.4755 29.3557C55.0348 29.1544 55.6297 29.0716 56.2227 29.1124H66.6181C67.211 29.0716 67.806 29.1544 68.3652 29.3557C68.9245 29.5571 69.4358 29.8726 69.8666 30.2821C70.5612 30.93 71.0951 31.731 71.4259 32.6214L85.4597 77.0697L98.4539 32.4915C98.6599 31.6116 99.1652 30.8306 99.8832 30.2821C100.314 29.8726 100.825 29.5571 101.385 29.3557C101.944 29.1544 102.539 29.0716 103.132 29.1124H119.115C120.045 29.1124 120.938 29.4821 121.595 30.1402C122.253 30.7983 122.623 31.6908 122.623 32.6214C122.686 33.1394 122.686 33.6631 122.623 34.1811L100.273 106.312C99.9468 107.387 99.3675 108.367 98.5838 109.171C98.0989 109.571 97.5383 109.87 96.9355 110.048C96.3326 110.227 95.7 110.282 95.0754 110.211H80.9117C80.3077 110.272 79.6976 110.211 79.1173 110.033C78.5371 109.854 77.9985 109.561 77.5332 109.171C76.6637 108.414 76.032 107.421 75.714 106.312L61.4204 63.6832L47.1268 106.312C46.8088 107.421 46.177 108.414 45.3076 109.171C44.8423 109.561 44.3037 109.854 43.7234 110.033C43.1432 110.211 42.5331 110.272 41.9291 110.211H27.6354Z" fill="#4C4C4C"/>
<path d="M151.86 111.771C146.709 111.858 141.603 110.792 136.917 108.651C132.742 106.665 129.125 103.673 126.391 99.9437C123.657 96.1784 122.283 91.596 122.493 86.9471C122.421 83.5091 123.202 80.1068 124.766 77.0448C126.331 73.9828 128.631 71.3568 131.459 69.4018C138.723 64.7885 146.946 61.8988 155.498 60.954L174.99 57.9647V55.7553C175.243 52.71 174.414 49.6729 172.651 47.1776C171.535 46.0706 170.186 45.2275 168.702 44.7102C167.218 44.193 165.637 44.0146 164.075 44.1884C161.587 44.1313 159.127 44.7129 156.928 45.8779C155.134 47.0591 153.661 48.6666 152.64 50.5567C152.24 51.2245 151.666 51.7709 150.979 52.1372C150.292 52.5036 149.519 52.676 148.741 52.6362H131.329C130.846 52.6676 130.362 52.5905 129.912 52.4106C129.462 52.2307 129.059 51.9525 128.73 51.5964C128.417 51.3015 128.182 50.9335 128.046 50.5251C127.909 50.1168 127.877 49.6811 127.951 49.257C128.053 46.9444 128.771 44.701 130.03 42.7588C131.717 39.9443 133.921 37.4748 136.527 35.4807C139.872 32.8471 143.655 30.8234 147.702 29.5023C153.041 27.8397 158.614 27.0497 164.205 27.1629C170.052 27.0288 175.885 27.8183 181.487 29.5023C185.836 30.7991 189.834 33.0652 193.182 36.1305C196.124 38.8663 198.393 42.2474 199.809 46.0079C201.359 50.1616 202.109 54.5716 202.018 59.0045V106.312C202.036 106.844 201.941 107.374 201.739 107.867C201.538 108.36 201.234 108.804 200.848 109.171C200.49 109.524 200.062 109.798 199.593 109.977C199.123 110.156 198.621 110.236 198.119 110.211H179.928C179.424 110.253 178.917 110.181 178.445 110.001C177.973 109.821 177.547 109.538 177.199 109.171C176.813 108.804 176.509 108.36 176.308 107.867C176.106 107.374 176.011 106.844 176.029 106.312V100.853C174.621 103.042 172.76 104.904 170.572 106.312C168.157 108.062 165.482 109.422 162.645 110.341C159.151 111.395 155.509 111.878 151.86 111.771ZM158.877 94.0953C161.725 94.13 164.537 93.4603 167.063 92.1458C169.556 90.7518 171.554 88.6171 172.781 86.0374C174.293 82.7869 175.005 79.222 174.86 75.6401V73.9506L161.866 76.2899C158.057 76.7352 154.407 78.0709 151.21 80.1889C150.207 80.8387 149.375 81.7218 148.787 82.7629C148.198 83.804 147.871 84.9721 147.832 86.1673C147.811 87.8182 148.362 89.4255 149.391 90.7161C150.532 91.9847 151.957 92.9646 153.549 93.5754C155.279 94.0708 157.084 94.247 158.877 94.0953Z" fill="#4C4C4C"/>
<path d="M259.194 111.251C253.281 111.392 247.402 110.331 241.912 108.131C237.21 106.081 233.292 102.572 230.737 98.124C227.936 92.7132 226.593 86.6665 226.838 80.5787V50.6865H214.884C214.352 50.7046 213.822 50.6097 213.329 50.4081C212.836 50.2065 212.392 49.9028 212.025 49.5169C211.642 49.1751 211.339 48.7537 211.137 48.2821C210.935 47.8106 210.839 47.3004 210.856 46.7876V33.7911C210.839 33.2783 210.935 32.7681 211.137 32.2966C211.339 31.825 211.642 31.4036 212.025 31.0618C212.392 30.6759 212.836 30.3721 213.329 30.1705C213.822 29.9689 214.352 29.874 214.884 29.8921H226.968V3.89891C226.952 3.38614 227.048 2.87599 227.25 2.40443C227.452 1.93288 227.755 1.51141 228.138 1.16964C228.49 0.800026 228.913 0.505772 229.382 0.304706C229.851 0.10364 230.356 0 230.867 0H249.059C250.082 0.0325244 251.055 0.453705 251.779 1.17797C252.503 1.90224 252.924 2.87516 252.957 3.89891V29.8921H272.448C273.472 29.9246 274.444 30.3459 275.169 31.0701C275.893 31.7944 276.314 32.7673 276.346 33.7911V46.7876C276.314 47.8114 275.893 48.7843 275.169 49.5086C274.444 50.2328 273.472 50.654 272.448 50.6865H252.957V78.3693C252.816 81.311 253.491 84.2345 254.906 86.8171C255.686 87.8879 256.731 88.738 257.938 89.2847C259.145 89.8313 260.473 90.0559 261.793 89.9362H273.748C274.795 89.9218 275.812 90.2917 276.606 90.976C276.969 91.3542 277.248 91.8037 277.427 92.296C277.606 92.7883 277.681 93.3125 277.646 93.8352V106.832C277.685 107.354 277.61 107.878 277.428 108.369C277.246 108.859 276.96 109.305 276.59 109.675C276.22 110.045 275.775 110.331 275.284 110.513C274.793 110.695 274.269 110.77 273.748 110.731L259.194 111.251Z" fill="#FFD700"/>
<path d="M322.606 112.81C311.78 113.513 301.106 109.97 292.849 102.933C289.003 99.049 286.002 94.4118 284.034 89.3123C282.067 84.2128 281.174 78.7614 281.414 73.3006V67.842C281.48 60.4248 283.401 53.1421 287.002 46.6576C290.301 41.0399 295.182 36.5194 301.035 33.661C307.521 30.4123 314.705 28.8057 321.956 28.9822C329.893 28.6798 337.761 30.5683 344.696 34.4408C350.383 38.0022 354.901 43.1534 357.69 49.2569C360.864 55.9502 362.422 63.2956 362.238 70.7012V74.4702C362.254 74.983 362.158 75.4932 361.956 75.9647C361.754 76.4363 361.451 76.8577 361.069 77.1995C360.717 77.5691 360.293 77.8634 359.824 78.0644C359.355 78.2655 358.85 78.3693 358.34 78.3693H309.352V79.4089C309.456 82.2435 309.982 85.0469 310.911 87.7268C311.792 90.0599 313.326 92.0901 315.329 93.5752C317.405 95.0744 319.916 95.8506 322.476 95.7846C324.261 95.7989 326.031 95.4449 327.673 94.7449C328.974 94.1816 330.162 93.3892 331.182 92.4055L333.391 90.1961C334.009 89.4237 334.757 88.7641 335.6 88.2466C336.502 88.0805 337.427 88.0805 338.329 88.2466H357.82C358.749 88.2086 359.664 88.4832 360.419 89.0264C360.734 89.3518 360.978 89.7396 361.135 90.1648C361.291 90.5901 361.357 91.0434 361.328 91.4957C361.012 93.8263 360.069 96.0274 358.6 97.8641C356.589 100.709 354.131 103.211 351.323 105.272C347.751 107.925 343.752 109.947 339.498 111.251C333.983 112.65 328.283 113.176 322.606 112.81ZM335.6 62.5134C335.623 59.5506 335.14 56.6056 334.171 53.8057C333.233 51.5038 331.654 49.5191 329.623 48.0872C327.457 46.6873 324.924 45.9634 322.346 46.0077C319.801 45.9039 317.291 46.6341 315.199 48.0872C313.215 49.5373 311.684 51.5202 310.781 53.8057C309.693 56.5773 309.163 59.5365 309.222 62.5134H335.6Z" fill="#FFD700"/>
<path d="M409.797 112.81C402.769 112.997 395.79 111.574 389.396 108.651C383.631 105.976 378.726 101.745 375.232 96.4345C371.641 90.6495 369.667 84.0072 369.515 77.1996C369.515 75.51 369.515 73.4306 369.515 70.8313C369.515 68.232 369.515 66.1525 369.515 64.463C369.65 57.612 371.625 50.9235 375.232 45.098C378.602 39.7293 383.485 35.4785 389.266 32.8813C395.701 29.9287 402.718 28.4629 409.797 28.5924C416.09 28.4463 422.353 29.505 428.249 31.7116C433.028 33.3579 437.441 35.9181 441.243 39.2496C444.129 41.8998 446.545 45.0198 448.39 48.4772C449.855 51.0727 450.741 53.9545 450.988 56.925C451.04 57.4295 450.973 57.9391 450.793 58.413C450.612 58.8869 450.323 59.312 449.949 59.6542C449.174 60.3858 448.155 60.8028 447.09 60.824H426.819C425.848 60.8814 424.885 60.6063 424.09 60.0441C423.407 59.3592 422.836 58.5694 422.401 57.7047C421.56 54.9953 419.931 52.5975 417.723 50.8166C415.083 49.1709 411.963 48.4679 408.872 48.8219C405.781 49.1759 402.901 50.5661 400.701 52.7661C398.049 56.5601 396.766 61.1431 397.063 65.7626C397.063 69.9215 397.063 73.6905 397.063 76.9397C396.712 81.5648 398 86.1656 400.701 89.9363C401.908 91.267 403.399 92.3085 405.064 92.9835C406.729 93.6585 408.524 93.9496 410.317 93.8352C412.983 93.9323 415.614 93.2063 417.853 91.7558C420.077 90.015 421.674 87.597 422.401 84.8676C422.836 84.0029 423.407 83.2132 424.09 82.5282C424.885 81.966 425.848 81.691 426.819 81.7484H446.57C447.636 81.7695 448.655 82.1866 449.429 82.9181C449.803 83.2603 450.092 83.6854 450.273 84.1593C450.453 84.6333 450.52 85.1429 450.469 85.6474C450.26 87.7924 449.734 89.8947 448.909 91.8858C447.821 94.5376 446.379 97.0296 444.621 99.2938C442.403 102.061 439.774 104.472 436.825 106.442C433.336 108.873 429.474 110.717 425.39 111.9C420.261 112.936 415.011 113.242 409.797 112.81Z" fill="#FFD700"/>
<path d="M463.073 111.251C462.569 111.292 462.063 111.221 461.591 111.041C461.118 110.861 460.692 110.577 460.344 110.211C459.958 109.844 459.655 109.399 459.453 108.907C459.252 108.414 459.157 107.884 459.175 107.352V4.41877C459.207 3.39502 459.628 2.4221 460.353 1.69784C461.077 0.973567 462.05 0.552288 463.073 0.519763H483.084C483.616 0.501694 484.146 0.596678 484.639 0.798293C485.132 0.999907 485.576 1.30363 485.943 1.68951C486.63 2.4302 487.003 3.40867 486.982 4.41877V39.2496C489.833 35.9504 493.384 33.3305 497.378 31.5817C501.855 29.5176 506.742 28.4955 511.671 28.5924C517.315 28.5316 522.875 29.9665 527.784 32.7513C532.59 35.5098 536.477 39.6234 538.959 44.5782C541.77 50.6386 543.148 57.2645 542.987 63.9431V107.352C543.006 107.884 542.911 108.414 542.709 108.907C542.507 109.399 542.204 109.844 541.818 110.211C541.476 110.585 541.051 110.874 540.577 111.055C540.103 111.235 539.594 111.302 539.089 111.251H518.948C518.446 111.275 517.945 111.196 517.475 111.017C517.005 110.838 516.578 110.563 516.219 110.211C515.834 109.844 515.53 109.399 515.328 108.907C515.127 108.414 515.032 107.884 515.05 107.352V64.8528C515.331 60.7781 514.08 56.7453 511.542 53.5458C510.225 51.9966 508.563 50.7781 506.69 49.9881C504.817 49.198 502.784 48.8586 500.756 48.997C498.855 48.8746 496.949 49.172 495.175 49.8683C493.401 50.5646 491.802 51.6426 490.491 53.0259C489.117 54.5533 488.064 56.3413 487.394 58.2837C486.725 60.226 486.452 62.2832 486.593 64.333V106.832C486.607 107.88 486.237 108.897 485.553 109.691C485.175 110.053 484.725 110.333 484.233 110.512C483.741 110.691 483.217 110.766 482.694 110.731L463.073 111.251Z" fill="#FFD700"/>
</svg>
